
<svg width="341px" height="282px" viewBox="0 0 341 282" version="1.1" xmlns="http://www.w3.org/2000/svg">
    <g id="Page-1" stroke="none" stroke-width="1" fill="none" fill-rule="evenodd">
        <g id="Group" stroke="#979797">
            <path d="M106,0.5 C108.067776,0.5 109.93822,1.3930824 111.292754,2.83227471 C112.657928,4.2827721 113.5,6.28723565 113.5,8.5 C113.5,10.2675678 112.962782,11.9019757 112.050722,13.2276112 L112.050722,13.2276112 L171.913686,101.97868 L168.597534,104.215453 L108.98748,15.8401214 C108.072551,16.2645829 107.06215,16.5 106,16.5 C103.932224,16.5 102.06178,15.6069176 100.707246,14.1677253 C99.3420717,12.7172279 98.5,10.7127644 98.5,8.5 C98.5,6.28723565 99.3420717,4.2827721 100.707246,2.83227471 C102.06178,1.3930824 103.932224,0.5 106,0.5 Z" id="Oval-2" fill="#CACACA"></path>
            <ellipse id="Oval" fill="#CACACA" cx="42.5" cy="184.5" rx="42" ry="53"></ellipse>
            <ellipse id="Oval" fill="#CACACA" cx="298.5" cy="187.5" rx="42" ry="53"></ellipse>
            <rect id="Rectangle-2" fill="#D8D8D8" x="36.5" y="95.5" width="272" height="186" rx="12"></rect>
            <ellipse id="Oval" fill="#666666" cx="238.5" cy="162" rx="29" ry="24.5"></ellipse>
            <ellipse id="Oval" fill="#666666" cx="114.5" cy="162" rx="29" ry="24.5"></ellipse>
            <path d="M106,237.988281 C114.170673,221.321615 138.170673,212.988281 178,212.988281 C217.829327,212.988281 241.829327,221.321615 250,237.988281" id="Path" stroke-width="2"></path>
        </g>
    </g>
</svg>